<?xml version="1.0" standalone="no"?>
<!DOCTYPE svg PUBLIC "-//W3C//DTD SVG 20010904//EN"
 "http://www.w3.org/TR/2001/REC-SVG-20010904/DTD/svg10.dtd">
<svg version="1.0" xmlns="http://www.w3.org/2000/svg"
 width="100.000000pt" height="100.000000pt" viewBox="0 0 100.000000 100.000000"
 preserveAspectRatio="xMidYMid meet">
<metadata>
Created by potrace 1.14, written by Peter Selinger 2001-2017
</metadata>
<g transform="translate(0.000000,100.000000) scale(0.100000,-0.100000)"
fill="#000000" stroke="none">
<path d="M385 910 c-4 -6 62 -132 151 -287 88 -152 193 -335 234 -407 44 -76
81 -131 90 -131 18 0 109 178 110 214 0 13 -58 127 -130 253 -71 126 -130 234
-130 239 0 5 -3 9 -7 9 -5 0 -17 18 -27 40 -33 69 -45 75 -171 78 -78 3 -115
0 -120 -8z m227 -47 c20 -23 318 -549 318 -562 0 -14 -59 -139 -68 -145 -7 -4
-405 675 -420 715 -2 5 32 9 76 9 63 0 82 -4 94 -17z"/>
<path d="M287 743 c-75 -121 -180 -306 -181 -321 -1 -16 17 -17 223 -17 145 0
226 4 228 10 4 13 -218 357 -234 362 -7 3 -23 -13 -36 -34z m46 -301 c-91 -1
-168 -1 -170 1 -3 4 92 172 144 255 14 23 17 20 103 -115 l89 -138 -166 -3z"/>
<path d="M44 287 c-3 -8 9 -38 25 -66 17 -29 31 -54 31 -57 0 -2 11 -22 25
-44 l25 -40 290 0 c187 0 291 4 295 10 4 6 -17 54 -47 108 l-53 97 -293 3
c-241 2 -293 0 -298 -11z m602 -95 c19 -35 34 -65 34 -68 0 -2 -114 -4 -254
-4 l-254 0 -36 64 c-20 35 -36 67 -36 70 0 4 115 5 256 4 l255 -3 35 -63z"/>
</g>
</svg>
